<svg xmlns="http://www.w3.org/2000/svg" viewBox="0 0 12.886 18"><g transform="translate(-13.576 -11)"><path fill="currentColor" d="M20,29a1.561,1.561,0,0,1-1.3-.8L14.5,21a6.66,6.66,0,0,1,2.1-9A6.742,6.742,0,0,1,20,11a6.277,6.277,0,0,1,5.6,3.3,6.367,6.367,0,0,1,0,6.4v.1l-4.3,7.5A1.709,1.709,0,0,1,20,29Zm0-17a6.026,6.026,0,0,0-2.9.8,5.561,5.561,0,0,0-1.7,7.6l4.2,7.3a.417.417,0,0,0,.8,0l4.3-7.4v-.1A5.45,5.45,0,0,0,20,12Z"/><path fill="currentColor"  d="M20,20a2.5,2.5,0,1,1,2.5-2.5A2.476,2.476,0,0,1,20,20Zm0-4a1.5,1.5,0,1,0,1.5,1.5A1.538,1.538,0,0,0,20,16Z"/></g></svg>
