<svg xmlns="http://www.w3.org/2000/svg" viewBox="0 0 21 21"><defs><style>.a{fill:#38a31f;}</style></defs><g transform="translate(2.471 2.471)"><path class="a" d="M21.529,29.559a8.029,8.029,0,1,1,8.029-8.029A8.013,8.013,0,0,1,21.529,29.559Zm0-14.824a6.794,6.794,0,1,0,6.794,6.794A6.854,6.854,0,0,0,21.529,14.735Z" transform="translate(-13.5 -13.5)"/></g><g transform="translate(9.882)"><path class="a" d="M20.118,17.676a.584.584,0,0,1-.618-.618V12.118a.618.618,0,1,1,1.235,0v4.941A.584.584,0,0,1,20.118,17.676Z" transform="translate(-19.5 -11.5)"/><g transform="translate(0 14.824)"><path class="a" d="M20.118,29.676a.584.584,0,0,1-.618-.618V24.118a.618.618,0,1,1,1.235,0v4.941A.584.584,0,0,1,20.118,29.676Z" transform="translate(-19.5 -23.5)"/></g></g><g transform="translate(0 9.882)"><g transform="translate(14.824)"><path class="a" d="M29.059,20.735H24.118a.618.618,0,1,1,0-1.235h4.941a.618.618,0,1,1,0,1.235Z" transform="translate(-23.5 -19.5)"/></g><path class="a" d="M17.059,20.735H12.118a.618.618,0,1,1,0-1.235h4.941a.618.618,0,1,1,0,1.235Z" transform="translate(-11.5 -19.5)"/></g></svg>