<svg xmlns="http://www.w3.org/2000/svg" viewBox="0 0 61.533 61.533"><defs><style>.a{fill:#fff;}</style></defs><g transform="translate(-11.5 -11.5)"><g transform="translate(11.5 11.5)"><path class="a" d="M42.267,73.033A30.767,30.767,0,1,1,73.033,42.267,30.741,30.741,0,0,1,42.267,73.033Zm0-57.914A27.147,27.147,0,1,0,69.414,42.267,27.345,27.345,0,0,0,42.267,15.12Z" transform="translate(-11.5 -11.5)"/><g transform="translate(7.239 16.288)"><path class="a" d="M37.027,54.006A23.481,23.481,0,0,1,13.5,30.478a24.683,24.683,0,0,1,4.344-13.754A1.881,1.881,0,0,1,19.291,16a2.176,2.176,0,0,1,1.448.362L50.782,46.4c.362.362.724.724.362,1.448A2.744,2.744,0,0,1,50.42,49.3,20.884,20.884,0,0,1,37.027,54.006Zm-17.374-33.3a17.929,17.929,0,0,0-2.534,9.773A20.085,20.085,0,0,0,37.027,50.386,18.783,18.783,0,0,0,46.8,47.852Z" transform="translate(-13.5 -16)"/></g><g transform="translate(16.5 7.601)"><path class="a" d="M48.061,51.244c-.362,0-1.086-.362-1.448-.362L16.57,20.839c-.362-.362-.724-.724-.362-1.448a2.744,2.744,0,0,1,.724-1.448A23.034,23.034,0,0,1,30.687,13.6,23.481,23.481,0,0,1,54.214,37.127a24.682,24.682,0,0,1-4.344,13.754c-.724,0-1.086.362-1.81.362ZM20.552,19.391,47.7,46.538a17.929,17.929,0,0,0,2.534-9.773A20.085,20.085,0,0,0,30.325,16.858,18.783,18.783,0,0,0,20.552,19.391Z" transform="translate(-16.059 -13.6)"/></g></g></g></svg>