<svg xmlns="http://www.w3.org/2000/svg" viewBox="0 0 17 17"><defs><style>.a{fill:#fff;}</style></defs><path class="a" d="M20,28.5A8.5,8.5,0,1,1,28.5,20,8.493,8.493,0,0,1,20,28.5Zm0-16A7.5,7.5,0,1,0,27.5,20,7.555,7.555,0,0,0,20,12.5Z" transform="translate(-11.5 -11.5)"/><g transform="translate(8 0.5)"><path class="a" d="M20,28a.472.472,0,0,1-.5-.5v-15a.5.5,0,0,1,1,0V27.6A.458.458,0,0,1,20,28Z" transform="translate(-19.5 -12)"/></g><g transform="translate(0.5 8)"><path class="a" d="M27.5,20.5h-15a.5.5,0,0,1,0-1H27.6a.472.472,0,0,1,.5.5A.56.56,0,0,1,27.5,20.5Z" transform="translate(-12 -19.5)"/></g><g transform="translate(3.5 0.2)"><path class="a" d="M19,28.3c-2.3-.8-4-4.2-4-8.3,0-4.2,1.7-7.6,4-8.3l1.5.3a.472.472,0,0,1-.5.5c-2.2,0-4,3.4-4,7.5s1.8,7.5,4,7.5a.472.472,0,0,1,.5.5Z" transform="translate(-15 -11.7)"/></g><g transform="translate(8 0.1)"><path class="a" d="M19.5,28a.472.472,0,0,1,.5-.5c2.2,0,4-3.4,4-7.5s-1.8-7.5-4-7.5a.472.472,0,0,1-.5-.5l1.3-.4c2.4.6,4.2,4.1,4.2,8.4,0,4.2-1.7,7.6-4,8.3Z" transform="translate(-19.5 -11.6)"/></g></svg>