<svg xmlns="http://www.w3.org/2000/svg" viewBox="0 0 17 17"><defs><style>.a{fill:#fff;}</style></defs><g transform="translate(6.3 3.922)"><path class="a" d="M20,21.5a.472.472,0,0,1-.5-.5,2.982,2.982,0,0,1,1.2-2.4,1.093,1.093,0,0,0,.4-1.2,1.182,1.182,0,0,0-.9-.9,1.163,1.163,0,0,0-1,.2,1.086,1.086,0,0,0-.4.9.5.5,0,0,1-1,0,2.136,2.136,0,0,1,.8-1.7,1.979,1.979,0,0,1,1.8-.4,2.267,2.267,0,0,1,1.7,1.7,2.167,2.167,0,0,1-.8,2.2,2.2,2.2,0,0,0-.9,1.6C20.5,21.3,20.3,21.5,20,21.5Z" transform="translate(-17.8 -15.422)"/><g transform="translate(1.7 8.028)"><path class="a" d="M20,24.5a.758.758,0,0,1-.4-.2.367.367,0,0,1-.1-.3.6.6,0,0,1,.1-.4.483.483,0,0,1,.7,0,.52.52,0,0,1,.2.4c0,.1-.1.3-.2.3C20.3,24.4,20.1,24.5,20,24.5Z" transform="translate(-19.5 -23.45)"/></g></g><path class="a" d="M20,28.5A8.5,8.5,0,1,1,28.5,20,8.493,8.493,0,0,1,20,28.5Zm0-16A7.5,7.5,0,1,0,27.5,20,7.555,7.555,0,0,0,20,12.5Z" transform="translate(-11.5 -11.5)"/></svg>