<svg xmlns="http://www.w3.org/2000/svg" viewBox="0 0 13.79 17.982"><defs><style>.a{fill:#fff;}</style></defs><g transform="translate(0)"><path class="a" d="M20.482,2.393C16.1,2.393,14.135.125,14.116.1a.31.31,0,0,0-.46,0c-.019.023-1.96,2.29-6.365,2.29a.3.3,0,0,0-.3.3V8.414a10.14,10.14,0,0,0,3.761,7.951,9.144,9.144,0,0,0,3.049,1.6.3.3,0,0,0,.171,0,9.15,9.15,0,0,0,3.049-1.6,10.14,10.14,0,0,0,3.761-7.951V2.693A.3.3,0,0,0,20.482,2.393Zm-.3,6.021a9.537,9.537,0,0,1-3.532,7.479,8.582,8.582,0,0,1-2.763,1.475,8.576,8.576,0,0,1-2.763-1.475A9.536,9.536,0,0,1,7.591,8.414V2.989a9.241,9.241,0,0,0,6.3-2.262,9.24,9.24,0,0,0,6.3,2.262Z" transform="translate(-6.991 0)"/><path class="a" d="M17.919,7.865a10.653,10.653,0,0,1-4.666,1.689.3.3,0,0,0-.262.3v4.034a8.329,8.329,0,0,0,3.074,6.537,7.6,7.6,0,0,0,1.913,1.11.3.3,0,0,0,.409-.279V8.113a.3.3,0,0,0-.468-.248Z" transform="translate(-11.192 -5.471)"/></g></svg>